<svg width="26.666687" height="24.000000" viewBox="0 0 26.6667 24" fill="none" xmlns="http://www.w3.org/2000/svg" xmlns:xlink="http://www.w3.org/1999/xlink">
	<desc>
			Created with Pixso.
	</desc>
	<path id="path" d="M5.33331 21.3333L8 21.3333L8 24L5.33331 24L5.33331 21.3333ZM13.3333 0L0 6.66666L0 24L2.66669 24L2.66669 13.3333L24 13.3333L24 24L26.6667 24L26.6667 6.66666L13.3333 0ZM8 10.6667L2.66669 10.6667L2.66669 8L8 8L8 10.6667ZM16 10.6667L10.6667 10.6667L10.6667 8L16 8L16 10.6667ZM24 10.6667L18.6667 10.6667L18.6667 8L24 8L24 10.6667ZM5.33331 16L8 16L8 18.6667L5.33331 18.6667L5.33331 16ZM10.6667 16L13.3333 16L13.3333 18.6667L10.6667 18.6667L10.6667 16ZM10.6667 21.3333L13.3333 21.3333L13.3333 24L10.6667 24L10.6667 21.3333ZM16 21.3333L18.6667 21.3333L18.6667 24L16 24L16 21.3333Z" fill-rule="evenodd" fill="#FFFFFF"/>
	<defs/>
</svg>
