<svg width="16.500000" height="18.333328" viewBox="0 0 16.5 18.3333" fill="none" xmlns="http://www.w3.org/2000/svg" xmlns:xlink="http://www.w3.org/1999/xlink">
	<desc>
			Created with Pixso.
	</desc>
	<path id="path" d="M6.41669 13.75L6.41669 11L0 11L0 7.33333L6.41669 7.33333L6.41669 4.58333L11 9.16667L6.41669 13.75ZM6.41669 0L14.6667 0C15.1729 0 15.605 0.178986 15.963 0.536972C16.321 0.894958 16.5 1.32707 16.5 1.83333L16.5 16.5C16.5 17.0063 16.321 17.4384 15.963 17.7964C15.605 18.1543 15.1729 18.3333 14.6667 18.3333L6.41669 18.3333C5.9104 18.3333 5.47827 18.1543 5.1203 17.7964C4.76233 17.4384 4.58331 17.0063 4.58331 16.5L4.58331 14.6667L6.41669 14.6667L6.41669 16.5L14.6667 16.5L14.6667 1.83333L6.41669 1.83333L6.41669 3.66667L4.58331 3.66667L4.58331 1.83333C4.58331 1.32707 4.76233 0.894958 5.1203 0.536972C5.47827 0.178986 5.9104 0 6.41669 0Z" fill-rule="evenodd" fill="#FFFFFF"/>
	<defs/>
</svg>
