<svg width="17.416687" height="18.333328" viewBox="0 0 17.4167 18.3333" fill="none" xmlns="http://www.w3.org/2000/svg" xmlns:xlink="http://www.w3.org/1999/xlink">
	<desc>
			Created with Pixso.
	</desc>
	<path id="path" d="M4.125 8.25L2.29169 8.25L2.29169 14.6667L4.125 14.6667L4.125 8.25ZM9.625 8.25L7.79169 8.25L7.79169 14.6667L9.625 14.6667L9.625 8.25ZM17.4167 16.5L0 16.5L0 18.3333L17.4167 18.3333L17.4167 16.5ZM15.125 8.25L13.2917 8.25L13.2917 14.6667L15.125 14.6667L15.125 8.25ZM8.70831 2.07167L13.4842 4.58333L3.9325 4.58333L8.70831 2.07167ZM8.70831 0L0 4.58333L0 6.41667L17.4167 6.41667L17.4167 4.58333L8.70831 0Z" fill-rule="nonzero" fill="#FFFFFF"/>
	<defs/>
</svg>
