<svg width="14.666687" height="14.666664" viewBox="0 0 14.6667 14.6667" fill="none" xmlns="http://www.w3.org/2000/svg" xmlns:xlink="http://www.w3.org/1999/xlink">
	<desc>
			Created with Pixso.
	</desc>
	<path id="path" d="M7.33331 0C8.34589 0 9.21008 0.357979 9.92609 1.07394C10.642 1.7899 11 2.65414 11 3.66666C11 4.67919 10.642 5.54343 9.92609 6.25939C9.21008 6.97535 8.34589 7.33334 7.33331 7.33334C6.3208 7.33334 5.45654 6.97535 4.7406 6.25939C4.02466 5.54343 3.66669 4.67919 3.66669 3.66666C3.66669 2.65414 4.02466 1.7899 4.7406 1.07394C5.45654 0.357979 6.3208 0 7.33331 0ZM7.33331 9.16666C11.385 9.16666 14.6667 10.8075 14.6667 12.8333L14.6667 14.6667L0 14.6667L0 12.8333C0 10.8075 3.28168 9.16666 7.33331 9.16666Z" fill-rule="nonzero" fill="#FFFFFF"/>
	<defs/>
</svg>
