<svg width="18.333313" height="18.333328" viewBox="0 0 18.3333 18.3333" fill="none" xmlns="http://www.w3.org/2000/svg" xmlns:xlink="http://www.w3.org/1999/xlink">
	<desc>
			Created with Pixso.
	</desc>
	<path id="path" d="M14.6667 14.6667C13.6492 14.6667 12.8333 15.4825 12.8333 16.5C12.8333 17.0063 13.0123 17.4384 13.3703 17.7964C13.7283 18.1543 14.1604 18.3333 14.6667 18.3333C15.1729 18.3333 15.605 18.1543 15.963 17.7964C16.321 17.4384 16.5 17.0063 16.5 16.5C16.5 15.4825 15.675 14.6667 14.6667 14.6667ZM0 0L0 1.83333L1.83331 1.83333L5.13336 8.79083L3.88666 11.0367C3.74915 11.2933 3.66669 11.5958 3.66669 11.9167C3.66669 12.4229 3.84564 12.855 4.20361 13.213C4.56165 13.571 4.99371 13.75 5.5 13.75L16.5 13.75L16.5 11.9167L5.88501 11.9167C5.73224 11.9167 5.65582 11.8403 5.65582 11.6875C5.65582 11.6417 5.66498 11.605 5.68335 11.5775L6.50836 10.0833L13.3375 10.0833C14.025 10.0833 14.63 9.69833 14.9417 9.13916L18.2233 3.20833C18.2875 3.06166 18.3333 2.90584 18.3333 2.75C18.3333 2.13889 18.0278 1.83333 17.4167 1.83333L3.85919 1.83333L2.9975 0L0 0ZM5.5 14.6667C4.48248 14.6667 3.66669 15.4825 3.66669 16.5C3.66669 17.0063 3.84564 17.4384 4.20361 17.7964C4.56165 18.1543 4.99371 18.3333 5.5 18.3333C6.00629 18.3333 6.43835 18.1543 6.79639 17.7964C7.15436 17.4384 7.33331 17.0063 7.33331 16.5C7.33331 15.4825 6.50836 14.6667 5.5 14.6667Z" fill-rule="nonzero" fill="#FFFFFF"/>
	<defs/>
</svg>
