<svg width="22.000000" height="17.030151" viewBox="0 0 22 17.0302" fill="none" xmlns="http://www.w3.org/2000/svg" xmlns:xlink="http://www.w3.org/1999/xlink">
	<desc>
			Created with Pixso.
	</desc>
	<path id="path" d="M18.6361 1.42627C17.212 0.759964 15.6893 0.275726 14.0974 0C13.9018 0.35347 13.6734 0.828903 13.5159 1.20712C11.8236 0.952621 10.1469 0.952621 8.48572 1.20712C8.32825 0.828903 8.09467 0.35347 7.8974 0C6.30371 0.275726 4.7793 0.761749 3.35516 1.42979C0.482727 5.7704 -0.295898 10.0032 0.0934448 14.1759C1.99854 15.5986 3.84485 16.4628 5.66003 17.0284C6.10822 16.4116 6.50793 15.7559 6.85223 15.0649C6.19641 14.8157 5.5683 14.5082 4.97479 14.1512C5.13226 14.0345 5.28625 13.9126 5.43506 13.7871C9.05499 15.4802 12.9882 15.4802 16.5648 13.7871C16.7154 13.9126 16.8694 14.0345 17.0251 14.1512C16.4299 14.5099 15.8 14.8174 15.1442 15.0667C15.4885 15.7559 15.8865 16.4134 16.3364 17.0302C18.1533 16.4646 20.0013 15.6004 21.9065 14.1759C22.3633 9.33867 21.1261 5.14476 18.6361 1.42627ZM7.3454 11.6097C6.25873 11.6097 5.36761 10.5952 5.36761 9.35988C5.36761 8.1245 6.23975 7.10828 7.3454 7.10828C8.45111 7.10828 9.34229 8.12273 9.32324 9.35988C9.32495 10.5952 8.45111 11.6097 7.3454 11.6097ZM14.6545 11.6097C13.5679 11.6097 12.6767 10.5952 12.6767 9.35988C12.6767 8.1245 13.5488 7.10828 14.6545 7.10828C15.7602 7.10828 16.6514 8.12273 16.6323 9.35988C16.6323 10.5952 15.7602 11.6097 14.6545 11.6097Z" fill-rule="evenodd" fill="#FFFFFF"/>
	<defs/>
</svg>
