<svg width="18.333313" height="16.500000" viewBox="0 0 18.3333 16.5" fill="none" xmlns="http://www.w3.org/2000/svg" xmlns:xlink="http://www.w3.org/1999/xlink">
	<desc>
			Created with Pixso.
	</desc>
	<path id="path" d="M3.66669 14.6667L5.5 14.6667L5.5 16.5L3.66669 16.5L3.66669 14.6667ZM9.16669 0L0 4.58334L0 16.5L1.83331 16.5L1.83331 9.16666L16.5 9.16666L16.5 16.5L18.3333 16.5L18.3333 4.58334L9.16669 0ZM5.5 7.33334L1.83331 7.33334L1.83331 5.5L5.5 5.5L5.5 7.33334ZM11 7.33334L7.33331 7.33334L7.33331 5.5L11 5.5L11 7.33334ZM16.5 7.33334L12.8333 7.33334L12.8333 5.5L16.5 5.5L16.5 7.33334ZM3.66669 11L5.5 11L5.5 12.8333L3.66669 12.8333L3.66669 11ZM7.33331 11L9.16669 11L9.16669 12.8333L7.33331 12.8333L7.33331 11ZM7.33331 14.6667L9.16669 14.6667L9.16669 16.5L7.33331 16.5L7.33331 14.6667ZM11 14.6667L12.8333 14.6667L12.8333 16.5L11 16.5L11 14.6667Z" fill-rule="nonzero" fill="#FFFFFF"/>
	<defs/>
</svg>
