<svg width="26.000000" height="31.055542" viewBox="0 0 26 31.0555" fill="none" xmlns="http://www.w3.org/2000/svg" xmlns:xlink="http://www.w3.org/1999/xlink">
	<desc>
			Created with Pixso.
	</desc>
	<path id="path" d="M13 31.0555C11.1222 29.3944 9.06992 28.1185 6.84305 27.2278C4.61621 26.337 2.33519 25.8917 0 25.8917L0 10.4C2.26297 10.4 4.50787 10.9176 6.73473 11.9528C8.96158 12.988 11.05 14.4324 13 16.2861C14.95 14.4324 17.0384 12.988 19.2653 11.9528C21.4921 10.9176 23.737 10.4 26 10.4L26 25.8917C23.6648 25.8917 21.3838 26.337 19.157 27.2278C16.9301 28.1185 14.8778 29.3944 13 31.0555ZM13 28.275C14.7093 27.0472 16.4727 26.0662 18.2903 25.3319C20.1079 24.5977 21.9556 24.1342 23.8333 23.9417L23.8333 12.7472C22.1963 13.012 20.469 13.6681 18.6514 14.7153C16.8338 15.7625 14.95 17.213 13 19.0667C10.8815 17.1167 8.95555 15.6361 7.22223 14.625C5.48889 13.6139 3.80371 12.988 2.16667 12.7472L2.16667 23.9417C4.04445 24.1342 5.89214 24.5977 7.70972 25.3319C9.52731 26.0662 11.2907 27.0472 13 28.275ZM13.1083 11.1222C11.5435 11.1222 10.2255 10.5866 9.15417 9.51527C8.08287 8.44398 7.54723 7.12593 7.54723 5.56111C7.54723 3.99629 8.08287 2.67824 9.15417 1.60695C10.2255 0.535645 11.5435 0 13.1083 0C14.6731 0 15.9912 0.535645 17.0625 1.60695C18.1338 2.67824 18.6694 3.99629 18.6694 5.56111C18.6694 7.12593 18.1338 8.44398 17.0625 9.51527C15.9912 10.5866 14.6731 11.1222 13.1083 11.1222ZM13.1141 8.95555C14.0491 8.95555 14.8477 8.62262 15.5097 7.95676C16.1718 7.29086 16.5028 6.4904 16.5028 5.55537C16.5028 4.6203 16.1698 3.82176 15.504 3.15973C14.8381 2.49768 14.0376 2.16667 13.1026 2.16667C12.1675 2.16667 11.369 2.4996 10.7069 3.16547C10.0449 3.83136 9.71388 4.63182 9.71388 5.56685C9.71388 6.50191 10.0468 7.30046 10.7127 7.96249C11.3786 8.62454 12.179 8.95555 13.1141 8.95555Z" fill-rule="nonzero" fill="#FFFFFF"/>
	<defs/>
</svg>
