<svg width="25.000000" height="25.478159" viewBox="0 0 25 25.4782" fill="none" xmlns="http://www.w3.org/2000/svg" xmlns:xlink="http://www.w3.org/1999/xlink">
	<desc>
			Created with Pixso.
	</desc>
	<path id="path" d="M7.51868 25.4782C6.8855 25.4782 6.34558 25.2527 5.89917 24.8018C5.45276 24.3508 5.22961 23.8087 5.22961 23.1755C5.22961 22.5423 5.45508 22.0024 5.90601 21.556C6.35693 21.1096 6.89905 20.8864 7.53223 20.8864C8.16553 20.8864 8.70532 21.1118 9.15173 21.5627C9.59814 22.0137 9.82141 22.5558 9.82141 23.189C9.82141 23.8223 9.59595 24.3621 9.14502 24.8085C8.69397 25.2549 8.15198 25.4782 7.51868 25.4782ZM20.2737 25.4782C19.6405 25.4782 19.1007 25.2527 18.6542 24.8018C18.2078 24.3508 17.9846 23.8087 17.9846 23.1755C17.9846 22.5423 18.2101 22.0024 18.661 21.556C19.1119 21.1096 19.6541 20.8864 20.2872 20.8864C20.9205 20.8864 21.4603 21.1118 21.9067 21.5627C22.3531 22.0137 22.5764 22.5558 22.5764 23.189C22.5764 23.8223 22.351 24.3621 21.9 24.8085C21.4491 25.2549 20.907 25.4782 20.2737 25.4782ZM5.86731 4.43237L9.375 11.7027L18.5586 11.7027L22.5446 4.43237L5.86731 4.43237ZM4.91064 2.51912L23.6948 2.51912C24.183 2.51912 24.5544 2.74233 24.8091 3.18876C25.0638 3.63518 25.0636 4.08161 24.8085 4.52803L20.5037 12.2767C20.2699 12.6806 19.9663 13.0048 19.593 13.2493C19.2197 13.4938 18.8112 13.616 18.3672 13.616L8.70532 13.616L6.91956 16.9323L22.5764 16.9323L22.5764 18.8455L7.20654 18.8455C6.31372 18.8455 5.67065 18.5479 5.27734 17.9527C4.88416 17.3575 4.8894 16.6878 5.29333 15.9438L7.33411 12.181L2.48718 1.91325L0 1.91325L0 0L3.73083 0L4.91064 2.51912ZM9.375 11.7027L18.5586 11.7027L9.375 11.7027Z" fill-rule="nonzero" fill="#FFFFFF"/>
	<defs/>
</svg>
