<svg width="17.000000" height="15.299999" viewBox="0 0 17 15.3" fill="none" xmlns="http://www.w3.org/2000/svg" xmlns:xlink="http://www.w3.org/1999/xlink">
	<desc>
			Created with Pixso.
	</desc>
	<path id="path" d="M1.27502 14.025L3.82495 14.025L3.82495 7.225L13.175 7.225L13.175 14.025L15.725 14.025L15.725 4.25L8.5 1.36L1.27502 4.25L1.27502 14.025ZM0 15.3L0 3.4L8.5 0L17 3.4L17 15.3L11.9 15.3L11.9 8.5L5.09998 8.5L5.09998 15.3L0 15.3ZM6.16248 15.3L6.16248 14.025L7.4375 14.025L7.4375 15.3L6.16248 15.3ZM7.86255 12.75L7.86255 11.475L9.13745 11.475L9.13745 12.75L7.86255 12.75ZM9.5625 15.3L9.5625 14.025L10.8375 14.025L10.8375 15.3L9.5625 15.3ZM3.82495 7.225L13.175 7.225L3.82495 7.225Z" fill-rule="nonzero" fill="#C80000"/>
	<defs/>
</svg>
