<svg width="25.000000" height="24.000000" viewBox="0 0 25 24" fill="none" xmlns="http://www.w3.org/2000/svg" xmlns:xlink="http://www.w3.org/1999/xlink">
	<desc>
			Created with Pixso.
	</desc>
	<g id="path">
		<path d="M17.4541 14.1333C18.0009 14.1333 18.4875 13.9167 18.914 13.4833C19.3406 13.05 19.5538 12.55 19.5538 11.9833C19.5538 11.4167 19.3406 10.9222 18.914 10.5C18.4875 10.0778 18.0009 9.86667 17.4541 9.86667C16.9073 9.86667 16.4206 10.0778 15.9941 10.5C15.5676 10.9222 15.3543 11.4167 15.3543 11.9833C15.3543 12.55 15.5676 13.05 15.9941 13.4833C16.4206 13.9167 16.9073 14.1333 17.4541 14.1333ZM1.96851 20.2333L1.96851 22L1.96851 2L1.96851 20.2333ZM1.96851 24C1.46544 24 1.0116 23.8 0.606949 23.4C0.202316 23 0 22.5333 0 22L0 2C0 1.48889 0.202316 1.02777 0.606949 0.616669C1.0116 0.205566 1.46544 0 1.96851 0L21.6535 0C22.1785 0 22.6378 0.205566 23.0315 0.616669C23.4252 1.02777 23.622 1.48889 23.622 2L23.622 6.46667L21.6535 6.46667L21.6535 2L1.96851 2L1.96851 22L21.6535 22L21.6535 17.5667L23.622 17.5667L23.622 22C23.622 22.5333 23.4252 23 23.0315 23.4C22.6378 23.8 22.1785 24 21.6535 24L1.96851 24ZM13.7139 18.2333C12.9703 18.2333 12.3797 18.0111 11.9423 17.5667C11.5048 17.1222 11.2861 16.5333 11.2861 15.8L11.2861 8.23334C11.2861 7.47778 11.5048 6.88333 11.9423 6.45001C12.3797 6.01666 12.9703 5.79999 13.7139 5.79999L22.5722 5.79999C23.3158 5.79999 23.9064 6.01666 24.3438 6.45001C24.7813 6.88333 25 7.47778 25 8.23334L25 15.8C25 16.5333 24.7813 17.1222 24.3438 17.5667C23.9064 18.0111 23.3158 18.2333 22.5722 18.2333L13.7139 18.2333ZM23.0315 16.2333L23.0315 7.79999L13.2546 7.79999L13.2546 16.2333L23.0315 16.2333Z" fill-rule="nonzero" fill="#FFFFFF"/>
	</g>
	<defs/>
</svg>
