<svg width="19.715637" height="20.000000" viewBox="0 0 19.7156 20" fill="none" xmlns="http://www.w3.org/2000/svg" xmlns:xlink="http://www.w3.org/1999/xlink">
	<desc>
			Created with Pixso.
	</desc>
	<path id="path" d="M0.947876 18.2227L0.947876 6.32701C0.710876 6.27893 0.493652 6.09312 0.296204 5.76962C0.0987549 5.44612 0 5.11186 0 4.76685L0 1.72986C0 1.2818 0.174866 0.88147 0.524597 0.528885C0.874329 0.1763 1.27606 0 1.72986 0L17.9858 0C18.4338 0 18.8342 0.1763 19.1868 0.528885C19.5394 0.88147 19.7156 1.2818 19.7156 1.72986L19.7156 4.76685C19.7156 5.11186 19.6169 5.44612 19.4194 5.76962C19.222 6.09312 19.0048 6.27893 18.7678 6.32701L18.7678 18.2227C18.7678 18.6708 18.5915 19.079 18.2389 19.4474C17.8863 19.8158 17.486 20 17.0379 20L2.67773 20C2.22394 20 1.82214 19.8158 1.47241 19.4474C1.12274 19.079 0.947876 18.6708 0.947876 18.2227ZM2.67773 6.49289L2.67773 18.2701L17.0379 18.2701L17.0379 6.49289L2.67773 6.49289ZM17.9858 4.76303L17.9858 1.72986L1.72986 1.72986L1.72986 4.76303L17.9858 4.76303ZM6.87201 11.6825L12.8436 11.6825L12.8436 9.95261L6.87201 9.95261L6.87201 11.6825ZM2.67773 6.49289L2.67773 18.2701L2.67773 6.49289Z" fill-rule="nonzero" fill="#FFFFFF"/>
	<defs/>
</svg>
