<svg width="80.000000" height="61.927795" viewBox="0 0 80 61.9278" fill="none" xmlns="http://www.w3.org/2000/svg" xmlns:xlink="http://www.w3.org/1999/xlink">
	<desc>
			Created with Pixso.
	</desc>
	<g id="path">
		<path d="M67.7676 5.18643C62.5891 2.76352 57.0519 1.00266 51.2629 0C50.552 1.28537 49.7214 3.01422 49.1488 4.38953C42.995 3.46405 36.8978 3.46405 30.8572 4.38953C30.2847 3.01422 29.4352 1.28537 28.7179 0C22.9227 1.00266 17.3792 2.76999 12.2007 5.19928C1.75549 20.9833 -1.07605 36.3752 0.339722 51.5486C7.26746 56.7222 13.9813 59.8649 20.5819 61.9214C22.2117 59.6785 23.6652 57.2942 24.9172 54.7813C22.5325 53.8752 20.2484 52.757 18.0902 51.4587C18.6628 51.0345 19.2229 50.5911 19.7639 50.1348C32.9274 56.2916 47.2296 56.2916 60.2358 50.1348C60.7832 50.5911 61.3431 51.0345 61.9094 51.4587C59.7449 52.7633 57.4546 53.8815 55.0698 54.7878C56.322 57.2942 57.7693 59.6849 59.4052 61.9278C66.0121 59.8713 72.7322 56.7286 79.6599 51.5486C81.3212 33.9588 76.8223 18.7082 67.7676 5.18643ZM26.7106 42.2172C22.759 42.2172 19.5186 38.5282 19.5186 34.0359C19.5186 29.5436 22.6898 25.8483 26.7106 25.8483C30.7314 25.8483 33.9719 29.5372 33.9027 34.0359C33.9089 38.5282 30.7314 42.2172 26.7106 42.2172ZM53.2892 42.2172C49.3376 42.2172 46.097 38.5282 46.097 34.0359C46.097 29.5436 49.2683 25.8483 53.2892 25.8483C57.3098 25.8483 60.5504 29.5372 60.4812 34.0359C60.4812 38.5282 57.3098 42.2172 53.2892 42.2172Z" fill-rule="nonzero" fill="#FFFFFF"/>
	</g>
	<defs/>
</svg>
