<svg width="37.849976" height="37.000000" viewBox="0 0 37.85 37" fill="none" xmlns="http://www.w3.org/2000/svg" xmlns:xlink="http://www.w3.org/1999/xlink">
	<desc>
			Created with Pixso.
	</desc>
	<path id="path" d="M3.65002 37C2.6712 37 1.81824 36.631 1.09094 35.8931C0.363647 35.1552 0 34.3075 0 33.35L0 3.65002C0 2.6925 0.363647 1.84479 1.09094 1.10687C1.81824 0.368958 2.6712 0 3.65002 0L18.35 0L18.35 3.65002L3.65002 3.65002L3.65002 33.35L18.35 33.35L18.35 37L3.65002 37ZM28.15 28.25L25.45 25.6L30.75 20.3L13.45 20.3L13.45 16.65L30.65 16.65L25.35 11.35L28.05 8.75L37.85 18.55L28.15 28.25Z" fill-rule="nonzero" fill="#FFFFFF"/>
	<defs/>
</svg>
