<svg width="1.799988" height="12.000000" viewBox="0 0 1.79999 12" fill="none" xmlns="http://www.w3.org/2000/svg" xmlns:xlink="http://www.w3.org/1999/xlink">
	<desc>
			Created with Pixso.
	</desc>
	<path id="path" d="M0.897339 12C0.649109 12 0.4375 11.9116 0.262512 11.7348C0.0875244 11.5581 0 11.3456 0 11.0973C0 10.8491 0.0883789 10.6375 0.265137 10.4625C0.441956 10.2875 0.654419 10.2 0.902649 10.2C1.15088 10.2 1.36249 10.2884 1.53748 10.4652C1.71252 10.6419 1.79999 10.8544 1.79999 11.1027C1.79999 11.3509 1.71161 11.5625 1.53485 11.7375C1.35809 11.9125 1.14557 12 0.897339 12ZM0.897339 6.9C0.649109 6.9 0.4375 6.81161 0.262512 6.63483C0.0875244 6.45808 0 6.24557 0 5.99734C0 5.74911 0.0883789 5.5375 0.265137 5.3625C0.441956 5.1875 0.654419 5.1 0.902649 5.1C1.15088 5.1 1.36249 5.18839 1.53748 5.36517C1.71252 5.54192 1.79999 5.75443 1.79999 6.00266C1.79999 6.25089 1.71161 6.4625 1.53485 6.6375C1.35809 6.8125 1.14557 6.9 0.897339 6.9ZM0.897339 1.8C0.649109 1.8 0.4375 1.71161 0.262512 1.53484C0.0875244 1.35808 0 1.14558 0 0.897339C0 0.649113 0.0883789 0.4375 0.265137 0.262501C0.441956 0.0875015 0.654419 0 0.902649 0C1.15088 0 1.36249 0.0883865 1.53748 0.265163C1.71252 0.441925 1.79999 0.654427 1.79999 0.902664C1.79999 1.15089 1.71161 1.3625 1.53485 1.5375C1.35809 1.7125 1.14557 1.8 0.897339 1.8Z" fill-rule="evenodd" fill="#FFFFFF"/>
	<defs/>
</svg>
