<svg width="16.067139" height="20.000000" viewBox="0 0 16.0671 20" fill="none" xmlns="http://www.w3.org/2000/svg" xmlns:xlink="http://www.w3.org/1999/xlink">
	<desc>
			Created with Pixso.
	</desc>
	<path id="path" d="M7.07434 12.9017L8.9928 12.9017L8.9928 10.5036L11.3909 10.5036L11.3909 8.58513L8.9928 8.58513L8.9928 6.18706L7.07434 6.18706L7.07434 8.58513L4.67627 8.58513L4.67627 10.5036L7.07434 10.5036L7.07434 12.9017ZM8.03406 20C5.69958 19.4404 3.77698 18.0971 2.26624 15.9699C0.755371 13.8427 0 11.5175 0 8.99449L0 3.03163L8.03357 0L16.0671 3.03163L16.0671 8.98405C16.0671 11.5159 15.3119 13.8449 13.8015 15.9712C12.291 18.0975 10.3685 19.4404 8.03406 20ZM8.03357 18.2014C9.87207 17.5779 11.3789 16.4149 12.554 14.7122C13.729 13.0096 14.3165 11.1014 14.3165 8.98776L14.3165 4.2422L8.03357 1.8705L1.75061 4.2422L1.75061 8.98776C1.75061 11.1014 2.33813 13.0096 3.51318 14.7122C4.68823 16.4149 6.19507 17.5779 8.03357 18.2014Z" fill-rule="nonzero" fill="#458F00"/>
	<defs/>
</svg>
